PathFileType	4	(X/Y/Z)	C:/Users/beibeiliu/ov580/test_trc/User1\sequence.15_training_dense_right.trc
DataRate	CameraRate	NumFrames	NumMarkers	Units	OrigDataRate	OrigDataStartFrame	OrigNumFrames
120	120	21	19	mm	120	69	273
Frame#	Time	ThumbCMC			ThumbMCP			ThumbIP			ThumbTip			IndexMCP			IndexPIP			IndexTip			MiddleMCP			MiddlePIP			MiddleTip			RingMCP			RingPIP			RingTip			PinkyMCP			PinkyPIP			PinkyTip			BackHand1			BackHand2			BackHand3	
		X0	Y0	Z0	X1	Y1	Z1	X2	Y2	Z2	X3	Y3	Z3	X4	Y4	Z4	X5	Y5	Z5	X6	Y6	Z6	X7	Y7	Z7	X8	Y8	Z8	X9	Y9	Z9	X10	Y10	Z10	X11	Y11	Z11	X12	Y12	Z12	X13	Y13	Z13	X14	Y14	Z14	X15	Y15	Z15	X16	Y16	Z16	X17	Y17	Z17	X18	Y18	Z18	
68	0.566667	112.185	73.0707	60.4681	104.378	55.2218	27.7013	103.669	49.1817	-5.13422	124.739	44.2663	-26.3874	117.602	116.177	-10.9875	115.28	120.847	-36.5341	111.093	124.238	-62.5553	135.193	89.9024	-29.3944	129.177	58.7447	-26.7137	134.173	59.7927	12.8037	159.285	82.8083	-26.531	145.052	52.5712	-27.1041	144.277	46.4917	8.75658	183.531	91.2868	-11.4003	180.778	94.5309	-27.4724	180.883	108.158	-51.907	172.246	102.633	36.1485	180.478	95.5997	66.5594	144.963	107.104	54.6935	
69	0.575	116.208	78.1438	57.7883	104.523	60.9598	26.7292	105.469	58.9133	-6.96134	123.136	52.3209	-25.6957	114.073	126.313	-9.98529	112.179	131.657	-33.085	111.127	136.261	-57.7874	133.104	101.041	-25.3816	124.781	68.2803	-27.6899	135.742	66.3267	11.3689	158.049	92.5483	-24.0783	143.73	62.715	-28.6003	148.251	52.1235	5.46252	180.388	99.5564	-11.2009	184.423	102.233	-27.4673	181.738	114.133	-48.1013	175.129	107.277	34.8577	177.787	96.7698	71.5521	142.299	107.417	61.266	
70	0.583333	116.647	79.6697	60.6354	105.003	66.5464	23.944	102.942	64.5161	-7.28862	124.582	61.6529	-29.0354	118.317	135.067	-6.8996	112.793	142.822	-28.4041	109.791	150.505	-55.8599	137.234	111.586	-23.1716	122.934	81.3616	-30.1907	132.841	71.4007	7.62115	155.301	101.622	-21.681	142.371	71.9675	-30.1117	141.534	59.3761	2.87173	181.064	107.605	-9.32332	182.283	113.03	-29.2119	178.649	125.541	-43.9215	175.299	109.972	35.8696	179.65	98.7288	68.2273	145.235	113.352	62.1505	
71	0.591667	116.11	84.4578	60.5827	101.331	70.8218	25.3175	107.758	73.1804	-6.57255	127.233	70.2428	-30.3255	117.991	142.797	1.24312	116.618	151.842	-25.0464	111.957	159.343	-45.806	132.602	121.658	-20.6152	122.332	92.7688	-30.1785	126.971	79.6378	10.31	155.136	110.144	-20.8924	145.646	81.2215	-29.8723	141.824	66.1284	3.77388	183.183	111.498	-4.98256	180.486	120.821	-22.19	179.491	133.235	-40.283	177.396	114.396	42.4369	180.903	97.9034	74.875	145.762	112.058	67.3839	
72	0.6	117.209	86.2651	64.8711	103.265	77.7638	23.9606	107.005	79.952	-5.69157	125.569	77.475	-27.8043	121.015	147.204	7.27031	116.294	159.858	-20.7592	114.845	167.587	-44.4148	134.982	129.763	-16.5142	124.654	99.7301	-29.086	125.02	83.3025	5.09423	155.56	118.934	-16.6999	139.454	89.6958	-28.1693	143.052	71.2868	0.474894	181.572	117.019	-1.60549	179.673	127.616	-23.9791	182.906	142.944	-41.355	177.137	117.626	44.4653	183.284	102.8	71.2873	144.133	118.611	66.8984	
73	0.608333	117.001	91.0775	62.9712	99.5311	79.1286	26.941	104.629	82.5282	-2.68059	117.888	81.9297	-27.0109	119.546	152.473	9.35256	112.259	164.298	-13.8644	112.957	172.783	-36.8457	134.265	134.85	-13.6395	123.511	108.249	-28.9527	124.124	85.078	3.46857	154.913	123.061	-14.5257	142.06	92.2928	-29.5598	141.005	74.4205	-0.61415	183.491	119.239	-2.15145	184.992	128.846	-22.2857	185.137	147.525	-39.317	174.576	119.581	43.5182	182.446	101.571	74.5059	145.966	117.714	70.6917	
74	0.616667	118.222	91.8451	65.0234	101.808	84.5779	28.9178	99.2744	85.9047	2.1792	107.716	85.1764	-24.4179	121.093	153.879	10.0172	115.87	167.758	-14.1162	118.274	175.249	-37.4246	134.804	134.285	-13.6418	124.285	105.058	-27.8267	126.2	82.3561	1.79534	157.1	123.236	-14.9111	141.034	90.9227	-27.2695	139.697	74.4141	-3.09818	185.008	119.549	-2.32404	185.874	130.539	-23.1963	185.434	147.636	-38.4064	179.164	120.269	41.7319	184.435	101.392	74.7064	148.436	122.19	68.0769	
75	0.625	118.378	94.4603	66.0523	98.5514	84.4358	36.8322	89.875	85.6585	10.3995	85.8719	85.3656	-19.9141	123.931	153.34	5.58878	120.267	164.843	-16.619	118.812	175.86	-38.7933	137.1	132.527	-12.559	122.48	101.458	-28.0024	126.372	79.7678	6.71988	157.913	117.475	-20.8442	142.042	92.71	-29.8982	141.032	72.548	-1.41775	187.979	116.176	-2.32237	189.993	123.897	-19.664	192.636	142.367	-38.05	181.987	118.942	40.7544	186.55	101.328	72.7533	149.912	123.823	67.9838	
76	0.633333	119.892	94.3746	67.9907	96.1554	87.7789	38.5226	83.7494	87.2163	17.2663	68.0076	84.068	-3.61201	130.862	146.317	3.30507	123.342	159.211	-19.796	128.116	170.368	-47.8095	140.187	125.084	-19.0944	127.226	93.6544	-31.8166	125.761	75.0094	1.33158	160.354	111.749	-20.086	144.135	80.6875	-29.9972	142.462	66.2533	-1.64419	189.083	110.182	-4.96287	192.291	117.046	-21.896	195.35	135.964	-39.9037	181.971	112.828	42.1051	190.994	102.801	69.0229	154.501	118.37	67.4297	
77	0.641667	118.402	94.3031	67.5419	97.8504	84.6126	45.034	77.9675	87.404	27.2437	58.2607	84.8391	11.0675	128.232	141.707	-5.75664	128.169	149.151	-28.6554	134.45	158.028	-52.8632	143.664	114.18	-24.6586	127.991	86.2535	-34.8653	130.305	65.7075	-0.203547	164.531	98.4235	-27.9223	146.233	73.646	-31.8276	141.421	57.8322	-3.56027	195.19	100.125	-8.16832	197.976	107.012	-26.7373	203.128	123.008	-45.0838	182.304	109.415	36.0102	190.378	99.0415	66.0678	155.837	115.437	59.8164	
78	0.65	117.229	90.5294	68.556	94.3959	81.6111	51.2148	69.7101	87.5139	31.798	53.2303	85.4837	18.1747	131.227	127.15	-8.3902	128.513	138.04	-33.5191	136.635	144.79	-58.5774	146.088	104.692	-25.1478	135.631	71.6556	-37.5859	131.372	55.3199	-2.14065	167.118	88.3136	-27.3137	152.74	57.5665	-32.3025	146.211	47.1048	-1.89791	196.037	93.3836	-11.783	200.78	96.63	-25.1859	203.87	112.806	-42.3348	181.617	106.313	35.7349	185.662	98.9869	69.7851	152.59	111.704	55.8541	
79	0.658333	115.247	85.9149	65.7277	91.1501	79.3851	51.7979	72.9943	79.7184	37.7874	51.6509	81.5745	26.0976	126.548	118.519	-16.5954	131.252	124.899	-41.0913	131.761	131.21	-63.9827	143.787	93.031	-28.3408	135.471	59.9679	-38.1531	131.197	45.0617	2.25761	165.998	81.3142	-25.2068	152.724	47.7798	-31.9733	147.998	36.9635	0.811102	197.167	86.5016	-11.3641	196.139	90.7067	-26.9624	207.252	104.089	-44.5034	179.301	101.279	35.0522	182.08	97.5679	65.9491	147.78	105.412	54.9577	
80	0.666667	114.753	81.7967	66.7978	88.7847	75.0787	51.0437	68.3977	76.431	39.0472	46.2701	76.9296	35.5966	128.544	106.898	-19.7331	126.938	111.656	-43.5763	131.251	116.501	-67.9054	144.823	78.9974	-30.5012	137.752	45.0924	-35.8998	130.967	33.4009	1.32867	166.529	70.7633	-26.3034	154.15	38.8818	-30.6578	146.953	26.4833	1.21693	192.911	79.2801	-10.7523	199.033	81.0408	-29.4397	206.209	93.4257	-48.718	176.311	95.7306	33.1754	181.307	92.3914	64.7342	145.813	99.7513	52.7797	
81	0.675	113.39	76.2218	65.8187	89.1249	67.7565	52.6638	66.6639	70.3908	41.4902	48.3601	69.7709	33.9759	122.859	96.9357	-21.0524	123.524	99.5029	-45.8536	127.467	104.123	-72.0266	145.044	66.4914	-32.8298	136.75	32.0254	-30.3992	130.795	24.8029	5.67398	166.407	58.7883	-27.4358	152.176	26.4757	-27.0127	150.84	17.0952	6.02705	192.823	70.445	-12.6037	198.767	71.3352	-28.935	203.264	83.8468	-46.2849	176.272	88.5702	33.4307	183.853	88.5476	64.98	148.183	94.821	49.7695	
82	0.683333	110.263	72.7776	65.7458	88.7585	63.1704	52.9807	66.9837	64.5415	38.6705	46.1394	64.8751	35.9056	125.288	87.9479	-22.656	123.821	90.3365	-44.8847	128.016	90.7598	-69.1609	142.402	60.6167	-29.5907	132.701	28.5188	-32.6616	131.765	19.1217	10.5844	164.096	50.6717	-26.8266	151.525	19.1007	-23.0385	149.306	12.2886	6.44902	191.239	64.2505	-8.86693	197.527	63.9933	-28.0628	200.179	75.1497	-45.655	176.78	84.2254	27.932	180.463	86.893	61.7425	145.002	90.3755	46.9887	
83	0.691667	115.18	69.7127	67.4808	87.9504	60.7613	53.9291	67.9601	61.64	42.2222	46.6675	62.1529	37.5878	125.713	85.1714	-18.6204	121.726	87.9124	-45.937	123.416	89.3085	-71.3287	145.107	58.6546	-28.5593	135.633	24.86	-30.2977	132.529	16.7899	8.62836	163.836	51.2757	-22.9961	156.032	18.649	-24.3711	147.225	11.944	10.1898	191.412	61.2215	-11.4786	194.818	62.4566	-29.9589	198.875	72.5886	-45.9529	179.334	82.0223	30.7849	184.606	82.1452	66.7052	146.684	90.0851	49.3929	
84	0.7	115.59	69.667	69.1033	92.0947	61.7039	52.9417	66.9858	64.2913	40.7507	49.9177	62.8542	35.7852	121.876	90.0692	-17.5681	125.202	90.7222	-43.395	126.946	93.585	-68.7126	143.918	63.297	-25.4455	134.998	26.7608	-28.8548	135.618	20.6263	10.6241	163.511	53.5893	-25.0906	159.074	20.2808	-24.3478	148.045	16.3613	7.56851	193.178	63.567	-3.82322	198.794	64.917	-23.796	197.613	75.4165	-44.3891	174.775	83.6157	32.0832	183.293	82.6745	66.4086	148.439	88.9221	50.8286	
85	0.708333	116.407	71.8265	69.7118	91.8615	65.578	55.974	71.4221	69.2107	39.7357	49.7025	70.0186	38.099	125.121	97.5773	-11.108	125.431	102.908	-37.3817	128.326	107.399	-64.3333	142.827	72.8804	-27.1813	138.31	41.1523	-32.9041	134.46	30.0469	8.78972	169.355	62.6373	-23.9649	156.43	34.2173	-27.9639	153.47	23.726	6.21033	193.76	71.9948	-6.02783	198.335	75.038	-22.3038	197.991	86.8514	-46.4184	176.888	86.4416	39.2591	184.192	80.9048	73.2822	150.479	90.9327	59.5866	
86	0.716667	115.934	76.0477	72.719	92.0061	71.0487	60.2719	69.3465	80.124	44.5466	51.1381	79.548	41.2345	126.66	113.277	-6.97655	127.416	118.293	-28.6303	132.368	127.379	-58.721	147.208	90.4311	-22.7016	138.102	56.9719	-33.4831	133.917	43.7634	5.15558	169.37	78.1058	-23.5762	154.943	49.0123	-28.6623	149.119	38.4004	3.4265	193.81	83.5547	-2.1336	196.54	90.9806	-21.2411	198.723	103.459	-39.0957	178.97	92.6008	41.0455	186.427	86.5213	75.8464	150.135	98.1391	61.5457	
87	0.725	118.625	79.558	76.6747	93.3701	81.7183	58.2249	70.2091	90.1591	47.3074	50.7074	93.9618	40.9763	130.896	128.374	1.43821	130.253	137.637	-19.7893	130.312	149.477	-43.6745	147.318	107.647	-19.8602	136.593	79.1388	-33.2199	136.844	57.0548	-0.737061	169.635	97.1168	-19.3136	159.297	67.1416	-30.2406	151.707	51.8122	-2.35227	198.093	96.7513	1.11263	199.397	105.341	-16.4841	205.392	121.028	-35.4614	182.995	101.294	47.8819	186.152	88.6915	76.5655	152.119	100.921	68.5283	
88	0.733333	119.57	87.1057	78.7271	92.9567	90.341	62.6463	74.8989	100.75	49.7985	54.7957	106.788	41.1507	134.208	143.101	9.59599	135.526	159.018	-13.9252	135.122	172.418	-37.0205	152.652	124.118	-15.331	141.034	97.8114	-32.2173	135.202	71.9516	-0.292977	168.299	113.935	-15.849	157.201	85.681	-29.523	154.159	65.0066	-1.36039	197.266	111.281	5.92442	204.438	121.105	-12.7185	209.569	139.818	-28.8788	180.694	111.657	47.8748	185.317	96.8954	78.32	152.088	111.251	71.3213	
